# xmcd
#
# Track frame offsets: 
#        150
#        20322
#        34080
#        47684
#        67836
#        82143
#        110739
#
# Disc length: 4300 seconds
#
# Revision: 2
# Processed by: cddbd v1.5.2PL0 Copyright (c) Steve Scherf et al.
# Submitted via: ExactAudioCopy v1.5
#
DISCID=5410ca07
DTITLE=Alicia Keys - songs in A minor (Deluxe Edition) [Disc 2]
DYEAR=2001
DGENRE=R&B
TTITLE0=A Woman's Worth (Remix) (feat. Nas)
TTITLE1=Juiciest (Mixtape Version)
TTITLE2=If I Was Your Woman (Original Funky Demo)
TTITLE3=Fallin' (The Ali Soundtrack Version)
TTITLE4=Typewriter
TTITLE5=Butterflyz (The Drumline Mix)
TTITLE6=data
EXTD=
EXTT0=
EXTT1=
EXTT2=
EXTT3=
EXTT4=
EXTT5=
EXTT6=
PLAYORDER=
